<svg xmlns="http://www.w3.org/2000/svg" viewBox="0 0 48 48"><path fill="#FFC107" d="M43.611 20.083H42V20H24v8h11.303c-1.649 4.657-6.08 8-11.303 8c-6.627 0-12-5.373-12-12s5.373-12 12-12c3.059 0 5.842 1.154 7.961 3.039l5.657-5.657C34.046 6.053 29.268 4 24 4C12.955 4 4 12.955 4 24s8.955 20 20 20s20-8.955 20-20c0-1.341-.138-2.65-.389-3.917z"/><path fill="#FF3D00" d="M6.306 14.691c-1.222 2.18-1.956 4.665-1.956 7.309s.734 5.129 1.956 7.309l-5.657 5.657C.607 30.638 0 27.464 0 24s.607-6.638 2.649-9.352l3.657 3.043z"/><path fill="#4CAF50" d="M24 44c5.166 0 9.86-1.977 13.409-5.192l-5.657-5.657C30.046 35.043 27.268 36 24 36c-5.225 0-9.652-3.343-11.303-8H6.306c1.649 4.657 6.08 8 11.303 8L24 44z"/><path fill="#1976D2" d="M43.611 20.083H42V20H24v8h11.303c-.792 2.237-2.231 4.166-4.087 5.571l5.657 5.657C42.486 36.137 44 31.474 44 24c0-1.341-.138-2.65-.389-3.917z"/></svg>